<svg xmlns="http://www.w3.org/2000/svg" viewBox="0 0 64 64">
  <defs>
    <linearGradient id="body" x1="0" y1="0" x2="0" y2="1">
      <stop offset="0" stop-color="#f5b14a"/>
      <stop offset="1" stop-color="#c98a2c"/>
    </linearGradient>
    <linearGradient id="neck" x1="0" y1="0" x2="0" y2="1">
      <stop offset="0" stop-color="#3d2817"/>
      <stop offset="1" stop-color="#2a1a0e"/>
    </linearGradient>
  </defs>
  <rect width="64" height="64" rx="12" fill="#0a0d12"/>
  <path d="M22 30 C16 32 14 40 17 48 C20 56 28 60 34 58 C42 56 48 48 46 40 C44 32 38 28 32 30 L32 14 L36 14 L36 8 L28 8 L28 14 L32 14 Z"
        fill="url(#body)"/>
  <rect x="29" y="8" width="6" height="22" fill="url(#neck)"/>
  <line x1="29" y1="13" x2="35" y2="13" stroke="#e8d8b0" stroke-width="0.8"/>
  <line x1="29" y1="18" x2="35" y2="18" stroke="#e8d8b0" stroke-width="0.8"/>
  <line x1="29" y1="23" x2="35" y2="23" stroke="#e8d8b0" stroke-width="0.8"/>
  <line x1="29" y1="28" x2="35" y2="28" stroke="#e8d8b0" stroke-width="0.8"/>
  <path d="M26 4 L38 4 L37 8 L27 8 Z" fill="#56c2ff"/>
  <circle cx="32" cy="46" r="6" fill="#0a0d12"/>
  <circle cx="32" cy="46" r="5" fill="none" stroke="#1a0d04" stroke-width="0.8"/>
</svg>
